<?xml version="1.0" encoding="UTF-8"?>
<!-- Generator: Adobe Illustrator 27.2.0, SVG Export Plug-In . SVG Version: 6.00 Build 0)  -->
<svg xmlns="http://www.w3.org/2000/svg" xmlns:xlink="http://www.w3.org/1999/xlink" version="1.1" id="Слой_1" x="0px" y="0px" viewBox="0 0 881.1 980" style="enable-background:new 0 0 881.1 980;" xml:space="preserve">
<style type="text/css">
	.st0{fill:#FFFFFF;}
	.st1{fill:#00B140;}
</style>
<g>
	<g id="ARIS_Main">
		<g id="Group_562" transform="translate(59 10)">
			<g>
				<g id="Group_332">
					<path id="Path_1852" class="st0" d="M704,333.7c0-89.1,87.4-161.3,87.4-161.3L663.2,28.3c0,0-16.5,33.5-60.2,33.5       c-62.3,0-90.3-22.8-149.7-22.8c-46.4,0-71.8,26.4-71.8,26.4S356.2,39,309.8,39c-59.5,0-87.4,22.8-149.7,22.8       c-43.7,0-60.2-33.5-60.2-33.5L-28.3,172.4c0,0,87.4,72.1,87.4,161.3c0,48.9-23.6,88.5-95,88.5c0,256.2,160.3,381.5,160.3,381.5       l22.6-70.9c0,0,64.3,117.5,234.5,212.6c170.2-95.1,234.5-212.6,234.5-212.6l22.6,70.9c0,0,160.3-125.3,160.3-381.5       C727.6,422.2,704,382.6,704,333.7"></path>
					<path id="Path_1853" class="st0" d="M381.5,970l-10.4-5.8C255.6,899.6,187.5,825.3,154,781.4l-18.5,58.2l-24.3-19       c-6.9-5.4-168.6-134.8-168.6-398.4v-18.1h21.4c50.2,0,73.5-24.6,73.5-70.4c0-77.7-78.8-144.1-79.6-144.8l-17-14.1L105.1-9.7       c0,0,10.4,21.5,14,28.6c1,2,12.3,21.6,41,21.6c28.8,0,49.5-5.3,71.4-10.9c22.7-5.8,46.2-11.9,78.3-11.9       c25.4-0.2,50.4,7,71.8,20.8c21.4-13.7,46.3-21,71.8-20.8c32.1,0,55.6,6,78.3,11.9c21.9,5.6,42.6,10.9,71.4,10.9       c28.7,0,39.9-19.6,41.1-21.8c3.6-7.1,14-28.6,14-28.6l164,184.8L805,188.9c-0.8,0.6-79.6,67-79.6,144.7       c0,45.8,23.4,70.4,73.5,70.4h21.4v18.1c0,263.6-161.7,393-168.6,398.4l-24.3,19L609,781.4c-33.5,44-101.5,118.2-217.1,182.8       L381.5,970z M141.8,678.7l24,43.9c0.6,1.1,61.3,108.8,215.7,198.3c154.4-89.5,215.2-197.2,215.8-198.3l24.1-43.5l27.3,85.7       c41-43.5,122.5-151,128.5-322.3c-60.5-7.3-94.6-46-94.6-108.7c0-73.8,51.6-135.3,78.9-162.7l-97.8-110       C651,72.2,631.3,83.2,603,83.2c-34.2,0-58.5-6.3-82-12.3c-21.1-5.4-41-10.5-67.7-10.5c-36,0-55.7,19.2-56.5,20l-15.4,16.1       l-15.3-16.3c-0.7-0.6-20.3-19.8-56.3-19.8c-26.7,0-46.6,5.1-67.7,10.5c-23.5,6-47.8,12.3-82,12.3c-28.3,0-48-11-60.7-22.2       L1.6,171c27.3,27.3,78.9,88.9,78.9,162.7c0,62.7-34.2,101.4-94.6,108.7c6,171.3,87.5,278.8,128.5,322.3L141.8,678.7z"></path>
					<path id="Path_1854" class="st1" d="M663.2,31l128.2,144.1c0,0-87.4,72.1-87.4,161.3c0,48.9,23.6,88.5,95,88.5       c0,256.2-160.3,381.5-160.3,381.5l-22.6-70.9c0,0-64.3,117.5-234.5,212.6C211.3,853,147,735.5,147,735.5l-22.6,70.9       c0,0-160.3-125.3-160.3-381.5c71.3,0,95-39.6,95-88.5c0-89.1-87.4-161.3-87.4-161.3L99.9,31c0,0,16.5,33.5,60.2,33.5       c62.3,0,90.3-22.8,149.7-22.8c46.4,0,71.8,26.4,71.8,26.4s25.3-26.4,71.8-26.4c59.5,0,87.4,22.8,149.7,22.8       C646.7,64.5,663.2,31,663.2,31"></path>
					<path id="Path_1855" class="st0" d="M787.5,435.9c0,0-181.6,83.8-406,83.8c-224.4,0-406-83.8-406-83.8       c1,53.4,9.2,104.9,24.4,153.4c1.7,5.5,3.6,11,5.5,16.4c60.4,23.3,205.9,71.5,376.1,71.5s315.6-48.2,376.1-71.5       c2-5.7,3.9-11.4,5.7-17.1C778.4,540.3,786.6,489,787.5,435.9"></path>
					<path id="Path_1856" class="st0" d="M738.6,215.6c11.1-14.8,23.4-28.6,36.8-41.3L664.1,49.1c-10.2,11.6-29.6,26.7-61.1,26.7       c-33,0-56.6-6.1-79.5-12C501.8,58.3,481.2,53,453.3,53c-40.6,0-62.7,22-63.7,23l-8.2,8.4l-8-8.4c-0.9-0.9-23-22.9-63.6-22.9       c-27.9,0-48.5,5.3-70.2,10.9c-22.9,5.9-46.6,12-79.5,12c-31.5,0-50.9-15.1-61.1-26.8L-12.4,174.2C1,187,13.3,200.8,24.4,215.6       c6.2,8.3,12,16.9,17.2,25.8h679.7C726.7,232.4,732.4,223.8,738.6,215.6"></path>
					<path id="Path_1857" class="st1" d="M233.9,219.9H200l-13.5-26h-61.7l-12.7,26H78.9l60.2-114.4h33L233.9,219.9z M176.5,174.6       l-21.3-42.5l-20.9,42.5L176.5,174.6z"></path>
					<path id="Path_1858" class="st1" d="M255.8,219.9V105.5h58.3c19,0,31.3,0.6,37.1,1.7c8.4,1.5,16.1,5.4,22.2,11.2       c6,5.8,9,13.2,9,22.3c0,7-1.7,12.9-5.2,17.7c-3.4,4.8-7.9,8.6-13.1,11.3c-5.1,2.7-10.5,4.5-16.2,5.4       c-7.4,1.1-18.2,1.6-32.3,1.6H287v43.2L255.8,219.9z M287,124.8v32.5h25.3c12.3,0,20.5-0.6,24.7-1.8c3.7-0.9,7.1-2.9,9.7-5.6       c4.9-5.3,4.7-13.6-0.6-18.5c-0.3-0.2-0.5-0.5-0.8-0.7c-3.6-2.8-8-4.6-12.5-5.1c-3.7-0.5-11.2-0.8-22.4-0.8L287,124.8z"></path>
					<path id="Path_1859" class="st1" d="M408.2,219.9V105.5h32.6v45h63.9v-45h32.6v114.4h-32.6v-50h-63.9v50L408.2,219.9z"></path>
					<path id="Path_1860" class="st1" d="M625.9,200.5l48.6-35.1l-51-40.6h56v-19.4H569.3v4.5l69.7,55.4l-69.7,50.4v4.1h114.9v-19.4       H625.9z"></path>
					<path id="Path_1861" class="st1" d="M87.5,507.2l-26.2-7.9l-36.6,83.6l23.9,7.3L74.8,526l28.8,80.8l24.3,7.4L87.5,507.2z"></path>
					<path id="Path_1862" class="st1" d="M212,614v17.4l-68.4-14.1v-94.7l67.5,13.9v17.4l-44.3-9.2v19.9l42.3,8.7v17.4l-42.3-8.7       v22.8L212,614z"></path>
					<path id="Path_1863" class="st1" d="M285.3,581.2l30.3-32l20.4,2.1v94.7l-23.5-2.4v-59.1L287,611.6l-3.5-0.4l-25.5-32.3v59.1       l-23.5-2.4V541L255,543L285.3,581.2z"></path>
					<path id="Path_1864" class="st1" d="M431.9,627.7v17.4l-69.8,1.1v-94.7l68.9-1v17.4l-45.3,0.7v19.9l43.2-0.7V605l-43.2,0.7       v22.8L431.9,627.7z"></path>
					<path id="Path_1865" class="st1" d="M601.4,524.7c15.8-3.4,28.5-1.3,38.3,6.4s14.6,17.9,14.6,30.8c0,13.1-4.9,25.5-14.8,37.3       c-9.7,11.7-23.2,19.7-38.1,22.7c-15.7,3.4-28.5,1.3-38.3-6.1c-9.9-7.5-14.8-17.8-14.8-31c0-13,4.9-25.4,14.7-37.2       S585.6,528.1,601.4,524.7 M601.4,602.2c8.3-1.6,15.7-6,21.1-12.5c5.3-6.3,8.1-14.4,8-22.6c0-8.7-2.7-15.1-8-19.2       c-5.3-4.1-12.4-5.3-21.1-3.4c-8.3,1.6-15.8,6-21.2,12.5c-5.3,6.3-8.2,14.4-8.1,22.7c0,8.6,2.7,15,8.1,19.2       S592.6,604,601.4,602.2"></path>
					<path id="Path_1866" class="st1" d="M490.1,622.1l31.4-28.8v-10.8l-31.4-20.4l33.5-3.7V541l-68.5,7.6V566l38.4,24.9L455.2,626       v17.4l69.4-7.7v-17.4L490.1,622.1z"></path>
					<path id="Path_1867" class="st1" d="M704,576l31.4-36v-10.8L703.9,516l35.9-11.7v-17.4l-65.5,21.4v17.4l38.4,16l-38.4,44V603       l66.4-21.7v-17.4L704,576z"></path>
					<path id="Path_1868" class="st0" d="M485.3,356.4l-78.2-3.3l-25.5-78.6L356,353.2l-78.2,3.3l62.4,45.3l-25.5,78.6l66.9-48.6       l66.9,48.6l-25.5-78.6L485.3,356.4z"></path>
				</g>
			</g>
		</g>
	</g>
</g>
</svg>
